<svg xmlns="http://www.w3.org/2000/svg" viewBox="0 0 400 280" preserveAspectRatio="none">
  <!-- Wave top border -->
  <path d="M40,8 Q100,2 160,8 Q220,14 280,8 Q340,2 360,8" fill="none" stroke="#0EA5E9" stroke-width="2" opacity="0.7"/>
  <line x1="40" y1="12" x2="360" y2="12" stroke="#7DD3FC" stroke-width="0.5" opacity="0.4"/>
  <!-- Wave bottom border -->
  <path d="M40,272 Q100,278 160,272 Q220,266 280,272 Q340,278 360,272" fill="none" stroke="#0EA5E9" stroke-width="2" opacity="0.7"/>
  <line x1="40" y1="268" x2="360" y2="268" stroke="#7DD3FC" stroke-width="0.5" opacity="0.4"/>
  <!-- Side borders -->
  <line x1="6" y1="40" x2="6" y2="240" stroke="#0EA5E9" stroke-width="2" opacity="0.7"/>
  <line x1="394" y1="40" x2="394" y2="240" stroke="#0EA5E9" stroke-width="2" opacity="0.7"/>
  <!-- Corner TL -->
  <path d="M6,6 L40,6 L40,12 L12,12 L12,40 L6,40 Z" fill="#0EA5E9" opacity="0.6"/>
  <circle cx="24" cy="24" r="6" fill="none" stroke="#7DD3FC" stroke-width="1.5" opacity="0.5"/>
  <circle cx="24" cy="24" r="2.5" fill="#BAE6FD" opacity="0.6"/>
  <!-- Corner TR -->
  <path d="M394,6 L360,6 L360,12 L388,12 L388,40 L394,40 Z" fill="#0EA5E9" opacity="0.6"/>
  <circle cx="376" cy="24" r="6" fill="none" stroke="#7DD3FC" stroke-width="1.5" opacity="0.5"/>
  <circle cx="376" cy="24" r="2.5" fill="#BAE6FD" opacity="0.6"/>
  <!-- Corner BL -->
  <path d="M6,274 L40,274 L40,268 L12,268 L12,240 L6,240 Z" fill="#0EA5E9" opacity="0.6"/>
  <circle cx="24" cy="256" r="6" fill="none" stroke="#7DD3FC" stroke-width="1.5" opacity="0.5"/>
  <circle cx="24" cy="256" r="2.5" fill="#BAE6FD" opacity="0.6"/>
  <!-- Corner BR -->
  <path d="M394,274 L360,274 L360,268 L388,268 L388,240 L394,240 Z" fill="#0EA5E9" opacity="0.6"/>
  <circle cx="376" cy="256" r="6" fill="none" stroke="#7DD3FC" stroke-width="1.5" opacity="0.5"/>
  <circle cx="376" cy="256" r="2.5" fill="#BAE6FD" opacity="0.6"/>
  <!-- Bubble accents top -->
  <circle cx="200" cy="6" r="3" fill="#7DD3FC" opacity="0.5"/>
  <circle cx="180" cy="4" r="2" fill="#BAE6FD" opacity="0.4"/>
  <circle cx="220" cy="4" r="2" fill="#BAE6FD" opacity="0.4"/>
  <!-- Side bubbles -->
  <circle cx="6" cy="140" r="3" fill="#7DD3FC" opacity="0.4"/>
  <circle cx="394" cy="140" r="3" fill="#7DD3FC" opacity="0.4"/>
</svg>
