<svg xmlns="http://www.w3.org/2000/svg" viewBox="0 0 56 56">
  <defs>
    <linearGradient id="vBg" x1="0%" y1="0%" x2="100%" y2="100%">
      <stop offset="0%" stop-color="#1E88E5"/>
      <stop offset="100%" stop-color="#0D47A1"/>
    </linearGradient>
    <linearGradient id="vShine" x1="0%" y1="0%" x2="100%" y2="100%">
      <stop offset="0%" stop-color="#90CAF9" stop-opacity="0.4"/>
      <stop offset="100%" stop-color="transparent"/>
    </linearGradient>
  </defs>
  <rect width="56" height="56" rx="14" fill="url(#vBg)"/>
  <rect width="56" height="28" rx="14" fill="url(#vShine)"/>
  <!-- Film strip -->
  <rect x="8" y="13" width="40" height="30" rx="4" fill="white"/>
  <rect x="10" y="15" width="36" height="26" rx="3" fill="#BBDEFB"/>
  <rect x="10" y="15" width="18" height="26" rx="3" fill="#E3F2FD" opacity="0.3"/>
  <!-- Play triangle -->
  <path d="M23 21 L37 28 L23 35Z" fill="#0D47A1"/>
  <path d="M25 23 L33 28 L25 33Z" fill="#1565C0" opacity="0.5"/>
  <!-- Film holes top -->
  <rect x="12" y="10" width="4.5" height="5" rx="1.2" fill="#0D47A1"/>
  <rect x="20" y="10" width="4.5" height="5" rx="1.2" fill="#0D47A1"/>
  <rect x="28" y="10" width="4.5" height="5" rx="1.2" fill="#0D47A1"/>
  <rect x="36" y="10" width="4.5" height="5" rx="1.2" fill="#0D47A1"/>
  <!-- Film holes bottom -->
  <rect x="12" y="41" width="4.5" height="5" rx="1.2" fill="#0D47A1"/>
  <rect x="20" y="41" width="4.5" height="5" rx="1.2" fill="#0D47A1"/>
  <rect x="28" y="41" width="4.5" height="5" rx="1.2" fill="#0D47A1"/>
  <rect x="36" y="41" width="4.5" height="5" rx="1.2" fill="#0D47A1"/>
  <!-- Reel circles -->
  <circle cx="14" cy="50" r="2" fill="white" opacity="0.3"/>
  <circle cx="42" cy="50" r="2" fill="white" opacity="0.3"/>
</svg>
