<svg xmlns="http://www.w3.org/2000/svg" viewBox="0 0 56 56">
  <defs>
    <linearGradient id="pBg" x1="0%" y1="0%" x2="100%" y2="100%">
      <stop offset="0%" stop-color="#E53935"/>
      <stop offset="100%" stop-color="#B71C1C"/>
    </linearGradient>
    <linearGradient id="pShine" x1="0%" y1="0%" x2="100%" y2="100%">
      <stop offset="0%" stop-color="#EF9A9A" stop-opacity="0.4"/>
      <stop offset="100%" stop-color="transparent"/>
    </linearGradient>
  </defs>
  <rect width="56" height="56" rx="14" fill="url(#pBg)"/>
  <rect width="56" height="28" rx="14" fill="url(#pShine)"/>
  <!-- Book -->
  <rect x="14" y="10" width="28" height="36" rx="3" fill="white"/>
  <rect x="14" y="10" width="5" height="36" rx="2" fill="#FFCDD2"/>
  <rect x="15" y="11" width="3" height="34" rx="1.5" fill="#EF9A9A" opacity="0.5"/>
  <!-- Page fold -->
  <path d="M36 10 L42 10 L42 16Z" fill="#FFCDD2"/>
  <path d="M36 10 L36 16 L42 16Z" fill="#E0E0E0"/>
  <!-- Lines -->
  <rect x="22" y="18" width="16" height="2.5" rx="1.2" fill="#EF9A9A"/>
  <rect x="22" y="24" width="12" height="2.5" rx="1.2" fill="#FFCDD2"/>
  <rect x="22" y="30" width="14" height="2.5" rx="1.2" fill="#FFCDD2"/>
  <!-- PDF badge -->
  <rect x="21" y="36" width="16" height="7" rx="3" fill="#E53935"/>
  <text x="29" y="41.5" text-anchor="middle" font-size="5" font-weight="bold" fill="white" font-family="sans-serif">PDF</text>
  <!-- Bookmark -->
  <path d="M34 10 L34 20 L37 17 L40 20 L40 10Z" fill="#E53935" opacity="0.7"/>
</svg>
